<svg width="142" height="32" viewBox="0 0 124 28" fill="none" xmlns="http://www.w3.org/2000/svg">
<path d="M103.855 11.7289C101.969 12.081 100.146 12.6092 98.4014 13.2899C101.003 18.99 104.845 24.0095 109.579 28C111.018 26.7872 112.372 25.4805 113.636 24.0916C111.097 22.022 108.843 19.6121 106.942 16.9361C107.81 16.8461 108.691 16.7992 109.579 16.7992C112.556 16.7992 115.412 17.3156 118.064 18.2663C119.066 16.6779 119.966 15.0152 120.756 13.2938C117.29 11.9441 113.522 11.2007 109.579 11.2007C107.619 11.1968 105.709 11.3807 103.855 11.7289Z" fill="#D32B4E"/>
<path d="M109.575 0C106.488 0 103.48 0.332542 100.581 0.966327C98.7223 1.3732 96.9109 1.90136 95.1543 2.54296C95.4555 4.42476 95.8781 6.26352 96.4219 8.05142C98.1511 7.38242 99.939 6.83862 101.786 6.43957C104.297 5.89185 106.903 5.60235 109.575 5.60235C114.215 5.60235 118.647 6.47087 122.728 8.05142C123.268 6.26352 123.694 4.42476 123.995 2.54296C119.5 0.895906 114.641 0 109.575 0Z" fill="#D32B4E"/>
<path d="M87.4381 9.964C84.234 9.964 81.6245 12.5735 81.6245 15.7776V17.9685H77.857C76.8438 17.9685 76.0183 17.1469 76.0183 16.1297V13.2777C76.0183 13.2581 76.0144 13.2346 76.0104 13.2151C76.0065 13.1955 75.9987 13.176 75.9909 13.1564C75.9752 13.1212 75.9518 13.086 75.9244 13.0586C75.8696 13.0038 75.7914 12.9686 75.7053 12.9686H72.3212C72.2351 12.9686 72.1608 13.0038 72.1021 13.0586C72.0747 13.086 72.0512 13.1212 72.0356 13.1564C72.0278 13.176 72.0199 13.1955 72.016 13.2151C72.0121 13.2346 72.0082 13.2542 72.0082 13.2777V16.1297C72.0082 17.143 71.1866 17.9685 70.1695 17.9685H68.1625H66.9966C65.9833 17.9685 65.1579 17.1469 65.1579 16.1297V8.27782C65.1579 8.19175 65.1226 8.11742 65.0679 8.05873C65.0131 8.00396 64.9349 7.96875 64.8488 7.96875H61.4647C61.3786 7.96875 61.3043 8.00396 61.2456 8.05873C61.1908 8.1135 61.1556 8.19175 61.1556 8.27782V16.1297C61.1556 17.143 60.334 17.9685 59.3169 17.9685H57.2355C56.6174 17.9685 56.0384 17.7298 55.6041 17.2917L49.5088 11.1964L49.4345 11.122C47.8813 9.56886 45.354 9.56886 43.8009 11.122L42.9675 11.9553L32.9326 21.9942H37.5726C38.2259 21.9942 38.8519 21.736 39.3135 21.2743L41.2344 19.3534L42.7837 20.9027C45.0489 23.1679 48.7381 23.1679 51.0033 20.9027C51.4493 20.4567 51.8092 19.952 52.0792 19.416L52.7834 20.1202C53.9766 21.3134 55.5611 21.9668 57.2473 21.9668H59.3286C60.7996 21.9668 62.1415 21.423 63.1665 20.5271C64.1915 21.423 65.5334 21.9668 67.0044 21.9668H68.1703H70.1773C71.6483 21.9668 72.9902 21.423 74.0152 20.5271C75.0402 21.423 76.3821 21.9668 77.8531 21.9668H81.6206H82.7747H89.2613C91.4599 21.9668 93.2439 20.1789 93.2439 17.9841V15.7776C93.2518 12.5735 90.6423 9.964 87.4381 9.964ZM48.1513 18.0937C47.4432 18.7783 46.3125 18.7705 45.6122 18.0702L44.063 16.5209L46.1873 14.3966C46.426 14.1579 46.8172 14.1579 47.0598 14.3966L48.1395 15.4764C48.8555 16.1923 48.879 17.3895 48.1513 18.0937ZM89.2495 17.3503C89.2495 17.6907 88.9757 17.9646 88.6353 17.9646H85.6307V15.7737C85.6307 14.7839 86.4249 13.978 87.4108 13.9623C88.424 13.9467 89.2534 14.8074 89.2534 15.8206V17.3503H89.2495Z" fill="white"/>
<path d="M28.5673 17.9691C27.554 17.9691 26.7285 17.1475 26.7285 16.1303V13.2783C26.7285 13.1101 26.5916 12.9692 26.4195 12.9692H23.0354C22.8671 12.9692 22.7263 13.1062 22.7263 13.2783V16.1303C22.7263 17.1436 21.9047 17.9691 20.8875 17.9691H13.0787H9.53025H5.83708C4.82381 17.9691 3.99832 17.1475 3.99832 16.1303V13.2783C3.99832 13.1101 3.86139 12.9692 3.68926 12.9692H0.309068C0.136929 12.9692 0 13.1062 0 13.2783V16.1303C0 19.354 2.61339 21.9713 5.841 21.9713H9.53416H13.0826H20.8914C22.3624 21.9713 23.7043 21.4275 24.7294 20.5316C25.7544 21.4275 27.0963 21.9713 28.5673 21.9713H30.7308L34.733 17.9691H28.5673Z" fill="white"/>
<path d="M85.7446 7.96562H89.1326C89.3009 7.96562 89.4417 7.82869 89.4417 7.65655V4.26854C89.4417 4.10031 89.3048 3.95947 89.1326 3.95947H85.7446C85.5764 3.95947 85.4355 4.0964 85.4355 4.26854V7.65655C85.4355 7.82478 85.5764 7.96562 85.7446 7.96562Z" fill="white"/>
<path d="M31.0395 11.972H34.4275C34.5958 11.972 34.7366 11.835 34.7366 11.6629V8.27489C34.7366 8.10666 34.5997 7.96582 34.4275 7.96582H31.0395C30.8713 7.96582 30.7305 8.10275 30.7305 8.27489V11.6629C30.7305 11.835 30.8674 11.972 31.0395 11.972Z" fill="white"/>
<path d="M9.6704 11.972H13.3636H17.0567C17.225 11.972 17.3658 11.835 17.3658 11.6629V8.27489C17.3658 8.10666 17.2289 7.96582 17.0567 7.96582H13.3636H9.6704C9.50217 7.96582 9.36133 8.10275 9.36133 8.27489V11.6629C9.36133 11.835 9.49826 11.972 9.6704 11.972Z" fill="white"/>
<path d="M72.2911 23.9663H68.5979H64.9048C64.7365 23.9663 64.5957 24.1032 64.5957 24.2754V27.6634C64.5957 27.8316 64.7326 27.9725 64.9048 27.9725H68.5979H72.2911C72.4593 27.9725 72.6002 27.8355 72.6002 27.6634V24.2754C72.5963 24.1032 72.4593 23.9663 72.2911 23.9663Z" fill="white"/>
</svg>
