<?xml version="1.0" encoding="UTF-8"?>
<svg id="Layer_2" data-name="Layer 2" xmlns="http://www.w3.org/2000/svg" viewBox="0 0 362.97 112.41">
  <defs>
    <style>
      .cls-1 {
        fill: #d81b60;
      }

      .cls-1, .cls-2 {
        stroke-width: 0px;
      }

      .cls-2 {
        fill: #fff;
      }
    </style>
  </defs>
  <g id="_استارنت" data-name="استارنت">
    <g>
      <path class="cls-1" d="M328.14,62.43c.02-1.28-.17-2.51-.57-3.64-.65-1.86-2.19-4.42-5.86-6.06l-1.32-.55-26.85-11.12c-1.16-.48-2.41.46-2.27,1.7.07.69.33,1.33.73,1.87.4.54.94.96,1.58,1.23l26.28,11.04c1.94.87,2.95,2.09,3.41,3.4.34.96.37,1.96.25,2.9-.24,1.91-1.22,3.65-2.64,4.94-.07.07-.15.13-.22.2l-.04.03c-.09.08-.18.15-.27.22l-5.44,4.18-.11.09-18.36,14.15c-.91.79-1.96,1.23-3.03,1.38-3.06.42-6.26-1.6-6.74-5.1l-2.52-18.24c-.64-3.04-12.04-8.22-24.18-6.55-3.14.43-6.33,1.33-9.39,2.83v39.94c0,6.15,4.99,11.14,11.14,11.14h90.13c6.15,0,11.14-4.99,11.14-11.14v-12.92c-17.8-1.68-40.17-9.71-34.83-25.92ZM351.83,0h-90.13c-6.15,0-11.14,4.99-11.14,11.14v42.32c24.53-1.12,43.67,11.25,44.1,14.37v.02l.78,6.1s10.65-8.17,10.65-8.17l-23.25-10.15-.86-6.19-2.58-18.61c-.64-4.62,3.84-8.22,8.17-6.73l48.21,19.54c1.4.62,2.48,1.62,3.17,2.8,1.67,2.84,1.21,6.75-1.74,9.02l-5.79,4.45c-10.32,9.38,11.36,18.25,31.56,20.61V11.14c0-6.15-4.99-11.14-11.14-11.14Z"/>
      <g>
        <path class="cls-2" d="M24.8,45.19h0c0,2.17,1.76,3.93,3.93,3.93h10.66c2.17,0,3.93-1.76,3.93-3.93h0c0-2.17-1.76-3.93-3.93-3.93h-10.66c-2.17,0-3.93,1.76-3.93,3.93Z"/>
        <path class="cls-2" d="M81.8,28.9h0c0,2.19,1.78,3.97,3.97,3.97h.6c2.19,0,3.97-1.78,3.97-3.97h0c0-2.19-1.78-3.97-3.97-3.97h-.6c-2.19,0-3.97,1.78-3.97,3.97ZM74.01,72.4h0s.23,0,.23,0c-.08,0-.15,0-.23,0Z"/>
        <path class="cls-2" d="M86.29,41.61c2.14-.52,4.21,1.1,4.21,3.3v11.24c0,2.93-.72,5.63-2.15,8.13-1.44,2.5-3.41,4.48-5.93,5.94-2.52,1.46-5.24,2.19-8.17,2.19-.08,0-.15,0-.23,0-2.08-.03-4.07-.46-5.97-1.32-1.89-.85-3.52-1.98-4.88-3.41-.98.98-2.09,1.82-3.32,2.54-2.49,1.46-5.2,2.19-8.13,2.19H16.33c-2.97,0-5.71-.73-8.2-2.19-2.49-1.46-4.47-3.44-5.93-5.94-1.46-2.49-2.19-5.23-2.19-8.2v-11c0-1.22.83-2.28,2.02-2.57l3.75-.91c2.14-.52,4.2,1.1,4.2,3.31v11.25c0,1.77.62,3.27,1.85,4.5,1.24,1.24,2.74,1.85,4.5,1.85h35.38c1.77,0,3.27-.62,4.5-1.85,1.24-1.23,1.85-2.73,1.85-4.5v-11.08c0-1.22.83-2.28,2.02-2.57l3.68-.9c2.14-.52,4.21,1.1,4.21,3.3v11.24c.05,1.77.67,3.27,1.85,4.5,1.19,1.24,2.66,1.85,4.42,1.85s3.2-.62,4.46-1.85c1.26-1.23,1.89-2.73,1.89-4.5v-11.08c0-1.22.83-2.28,2.02-2.57l3.68-.9Z"/>
        <path class="cls-2" d="M89.35,80.92l3.56-2.36c.74-.49,1.18-1.32,1.18-2.21v-31.22c0-1.21.82-2.27,2-2.56l3.67-.93c2.15-.54,4.23,1.08,4.23,3.3v36.3c0,1.14-.57,2.2-1.52,2.83l-7.63,5.09c-1.21.81-2.85.48-3.67-.73l-2.57-3.84c-.82-1.22-.49-2.87.74-3.68Z"/>
        <path class="cls-2" d="M126.88,29.01h0c0,2.18,1.76,3.94,3.93,3.94h10.66c2.17,0,3.93-1.76,3.93-3.93h0c0-2.18-1.76-3.94-3.93-3.94h-10.66c-2.17,0-3.93,1.76-3.93,3.93Z"/>
        <path class="cls-2" d="M210.26,41.81c2.15-.54,4.24,1.08,4.24,3.3v12.03c0,2.77-.68,5.33-2.04,7.67-1.36,2.35-3.21,4.2-5.56,5.56-2.34,1.36-4.88,2.04-7.6,2.04-1.86,0-3.69-.4-5.48-1.21-1.79-.81-3.36-1.79-4.73-2.95-1.31,1.26-2.86,2.27-4.65,3.02s-3.67,1.13-5.63,1.13-3.83-.45-5.75-1.36c-1.92-.91-3.5-1.96-4.76-3.18-1.46,1.41-3.14,2.52-5.03,3.33-1.89.81-3.89,1.21-6.01,1.21h-5.59c-2.22,0-4.29-.44-6.24-1.32-1.94-.88-3.64-2.08-5.1-3.59-1.46,1.51-3.16,2.71-5.1,3.59-1.94.88-4.02,1.32-6.24,1.32h-5.07c-2.97,0-5.71-.73-8.2-2.19-2.49-1.46-4.47-3.44-5.93-5.94-1.46-2.49-2.19-5.2-2.19-8.13v-30.22c0-1.21.82-2.27,2-2.56l3.67-.93c2.15-.54,4.23,1.08,4.23,3.3v30.41c0,1.77.63,3.27,1.89,4.5,1.26,1.24,2.77,1.85,4.54,1.85h5.07c1.77,0,3.28-.62,4.54-1.85,1.26-1.23,1.89-2.73,1.89-4.5v-11.08c0-1.22.83-2.28,2.02-2.57l3.68-.9c2.14-.52,4.21,1.1,4.21,3.3v11.24c0,1.16.28,2.23.83,3.21.56.99,1.32,1.75,2.31,2.31.98.55,2.05.83,3.21.83h5.59c1.16,0,2.23-.28,3.21-.83.98-.56,1.77-1.32,2.34-2.31.58-.98.87-2.05.87-3.21v-9.91c0-1.46,1.18-2.64,2.64-2.64h4.54c1.46,0,2.64,1.18,2.64,2.64v10.96c0,1.46.52,2.71,1.55,3.75,1.03,1.03,2.28,1.55,3.74,1.55s2.71-.51,3.74-1.55c1.03-1.04,1.55-2.28,1.55-3.75v-10.96c0-1.46,1.18-2.64,2.64-2.64h4.62c1.46,0,2.64,1.18,2.64,2.64v10.96c0,1.46.52,2.71,1.55,3.75,1.03,1.03,2.28,1.55,3.74,1.55s2.72-.51,3.78-1.55c1.06-1.04,1.59-2.28,1.59-3.75v-11.93c0-1.21.82-2.27,1.99-2.56l3.6-.91Z"/>
        <path class="cls-2" d="M220.1,23.37l3.75-.94c2.15-.54,4.23,1.09,4.23,3.3v44.03c0,1.46-1.18,2.65-2.65,2.65h-4.69c-1.46,0-2.65-1.18-2.65-2.65V25.94c0-1.21.83-2.27,2-2.57Z"/>
      </g>
    </g>
  </g>
</svg>